<svg width="300" height="110" viewBox="0 0 300 110" fill="none" xmlns="http://www.w3.org/2000/svg">
<circle cx="55" cy="55" r="34" stroke="#4E82E3" stroke-width="12"/>
<mask id="path-2-inside-1_18_33" fill="white">
<path d="M89.7141 89.7141C92.0209 92.0209 92.0385 95.7897 89.4979 97.8359C79.7697 105.671 67.608 110 55 110C42.392 110 30.2303 105.671 20.5022 97.836C17.9615 95.7897 17.9792 92.0209 20.2859 89.7141V89.7141C22.5927 87.4073 26.3121 87.4455 28.9118 89.4162C36.3757 95.0742 45.5274 98.1863 55 98.1863C64.4726 98.1863 73.6243 95.0742 81.0882 89.4162C83.6879 87.4455 87.4073 87.4073 89.7141 89.7141V89.7141Z"/>
</mask>
<path d="M89.7141 89.7141C92.0209 92.0209 92.0385 95.7897 89.4979 97.8359C79.7697 105.671 67.608 110 55 110C42.392 110 30.2303 105.671 20.5022 97.836C17.9615 95.7897 17.9792 92.0209 20.2859 89.7141V89.7141C22.5927 87.4073 26.3121 87.4455 28.9118 89.4162C36.3757 95.0742 45.5274 98.1863 55 98.1863C64.4726 98.1863 73.6243 95.0742 81.0882 89.4162C83.6879 87.4455 87.4073 87.4073 89.7141 89.7141V89.7141Z" stroke="#28D98B" stroke-width="24" mask="url(#path-2-inside-1_18_33)"/>
<path d="M136.929 41.0293C139.36 41.0293 141.481 41.5236 143.293 42.5121C145.147 43.5007 146.568 44.7982 147.556 46.4046V41.5236H158.122V75.9382C158.122 79.1099 157.483 81.9726 156.206 84.5264C154.971 87.1214 153.055 89.181 150.46 90.705C147.907 92.229 144.714 92.9911 140.884 92.9911C135.776 92.9911 131.636 91.776 128.465 89.3457C125.293 86.9567 123.481 83.7026 123.028 79.5836H133.469C133.799 80.9017 134.581 81.9314 135.817 82.6729C137.053 83.4555 138.577 83.8468 140.389 83.8468C142.572 83.8468 144.302 83.2083 145.579 81.9314C146.897 80.6957 147.556 78.698 147.556 75.9382V71.0571C146.527 72.6636 145.106 73.9817 143.293 75.0114C141.481 76 139.36 76.4943 136.929 76.4943C134.087 76.4943 131.513 75.7735 129.206 74.3318C126.899 72.8489 125.066 70.7688 123.707 68.0914C122.389 65.3729 121.73 62.2424 121.73 58.7C121.73 55.1576 122.389 52.0477 123.707 49.3704C125.066 46.693 126.899 44.6335 129.206 43.1918C131.513 41.7501 134.087 41.0293 136.929 41.0293ZM147.556 58.7618C147.556 56.1256 146.815 54.0455 145.332 52.5214C143.89 50.9974 142.119 50.2354 140.019 50.2354C137.918 50.2354 136.126 50.9974 134.643 52.5214C133.202 54.0043 132.481 56.0638 132.481 58.7C132.481 61.3362 133.202 63.4369 134.643 65.0021C136.126 66.5262 137.918 67.2882 140.019 67.2882C142.119 67.2882 143.89 66.5262 145.332 65.0021C146.815 63.4781 147.556 61.398 147.556 58.7618ZM176.331 30.2786V76H165.765V30.2786H176.331ZM199.681 76.4943C196.303 76.4943 193.255 75.7735 190.537 74.3318C187.859 72.8901 185.738 70.8306 184.173 68.1532C182.649 65.4758 181.887 62.3454 181.887 58.7618C181.887 55.2194 182.669 52.1095 184.234 49.4321C185.8 46.7136 187.942 44.6335 190.66 43.1918C193.379 41.7501 196.427 41.0293 199.804 41.0293C203.182 41.0293 206.23 41.7501 208.949 43.1918C211.667 44.6335 213.809 46.7136 215.374 49.4321C216.94 52.1095 217.722 55.2194 217.722 58.7618C217.722 62.3042 216.919 65.4346 215.313 68.1532C213.747 70.8306 211.585 72.8901 208.825 74.3318C206.107 75.7735 203.059 76.4943 199.681 76.4943ZM199.681 67.35C201.699 67.35 203.409 66.6086 204.809 65.1257C206.251 63.6429 206.972 61.5215 206.972 58.7618C206.972 56.002 206.271 53.8807 204.871 52.3979C203.512 50.915 201.823 50.1736 199.804 50.1736C197.745 50.1736 196.036 50.915 194.676 52.3979C193.317 53.8395 192.637 55.9608 192.637 58.7618C192.637 61.5215 193.296 63.6429 194.614 65.1257C195.974 66.6086 197.663 67.35 199.681 67.35ZM233.893 46.4046C234.881 44.7982 236.302 43.5007 238.156 42.5121C240.01 41.5236 242.131 41.0293 244.52 41.0293C247.362 41.0293 249.936 41.7501 252.243 43.1918C254.55 44.6335 256.362 46.693 257.68 49.3704C259.04 52.0477 259.719 55.1576 259.719 58.7C259.719 62.2424 259.04 65.3729 257.68 68.0914C256.362 70.7688 254.55 72.8489 252.243 74.3318C249.936 75.7735 247.362 76.4943 244.52 76.4943C242.09 76.4943 239.968 76.0206 238.156 75.0732C236.344 74.0846 234.923 72.7871 233.893 71.1807V76H223.327V30.2786H233.893V46.4046ZM248.969 58.7C248.969 56.0638 248.227 54.0043 246.744 52.5214C245.303 50.9974 243.511 50.2354 241.369 50.2354C239.268 50.2354 237.476 50.9974 235.994 52.5214C234.552 54.0455 233.831 56.1256 233.831 58.7618C233.831 61.398 234.552 63.4781 235.994 65.0021C237.476 66.5262 239.268 67.2882 241.369 67.2882C243.47 67.2882 245.261 66.5262 246.744 65.0021C248.227 63.4369 248.969 61.3362 248.969 58.7ZM297.761 58.2057C297.761 59.1943 297.7 60.224 297.576 61.295H273.665C273.83 63.4369 274.509 65.0845 275.704 66.2379C276.94 67.35 278.443 67.9061 280.214 67.9061C282.85 67.9061 284.683 66.7939 285.713 64.5696H296.958C296.381 66.8351 295.331 68.874 293.807 70.6864C292.324 72.4988 290.45 73.9199 288.185 74.9496C285.919 75.9794 283.386 76.4943 280.585 76.4943C277.207 76.4943 274.2 75.7735 271.564 74.3318C268.928 72.8901 266.869 70.8306 265.386 68.1532C263.903 65.4758 263.161 62.3454 263.161 58.7618C263.161 55.1782 263.882 52.0477 265.324 49.3704C266.807 46.693 268.866 44.6335 271.502 43.1918C274.139 41.7501 277.166 41.0293 280.585 41.0293C283.921 41.0293 286.887 41.7295 289.482 43.13C292.077 44.5305 294.095 46.5282 295.537 49.1232C297.02 51.7182 297.761 54.7457 297.761 58.2057ZM286.949 55.4254C286.949 53.613 286.331 52.1713 285.095 51.1004C283.86 50.0294 282.315 49.4939 280.461 49.4939C278.69 49.4939 277.187 50.0088 275.951 51.0386C274.756 52.0683 274.015 53.5306 273.727 55.4254H286.949Z" fill="black"/>
</svg>
